HIERARCHY
ROOT Hips
{
  OFFSET 0 0 0
  CHANNELS 6 Xposition Yposition Zposition Zrotation Xrotation Yrotation
  JOINT Spine
  {
    OFFSET 0.00000000 0.00000000 0.00000000
    CHANNELS 3 Zrotation Xrotation Yrotation
    JOINT Spine1
    {
      OFFSET 0.19000000 0.00000000 0.00000000
      CHANNELS 3 Zrotation Xrotation Yrotation
      JOINT Neck
      {
        OFFSET 0.22500000 0.00600000 0.00000000
        CHANNELS 3 Zrotation Xrotation Yrotation
        JOINT Head
        {
          OFFSET 0.14000000 0.00030878 0.00000000
          CHANNELS 3 Zrotation Xrotation Yrotation
          End Site
          {
            OFFSET 0.17000000 0.00000000 0.00000000
          }
        }
      }
      JOINT LeftShoulder
      {
        OFFSET 0.19800000 0.03700000 0.04300000
        CHANNELS 3 Zrotation Xrotation Yrotation
        JOINT LeftArm
        {
          OFFSET 0.08000000 0.00000000 0.00000000
          CHANNELS 3 Zrotation Xrotation Yrotation
          JOINT LeftForeArm
          {
            OFFSET 0.15200000 0.00000000 0.00000000
            CHANNELS 3 Zrotation Xrotation Yrotation
            JOINT LeftHand
            {
              OFFSET 0.17800000 0.00000000 0.00000000
              CHANNELS 3 Zrotation Xrotation Yrotation
              End Site
              {
                OFFSET 0.07200000 0.00000000 0.00000000
              }
            }
          }
        }
      }
      JOINT RightShoulder
      {
        OFFSET 0.19800000 0.03700000 -0.04300000
        CHANNELS 3 Zrotation Xrotation Yrotation
        JOINT RightArm
        {
          OFFSET 0.08000000 0.00000000 0.00151654
          CHANNELS 3 Zrotation Xrotation Yrotation
          JOINT RightForeArm
          {
            OFFSET 0.15200000 0.00000000 0.00000000
            CHANNELS 3 Zrotation Xrotation Yrotation
            JOINT RightHand
            {
              OFFSET 0.17800000 0.00000000 0.00000000
              CHANNELS 3 Zrotation Xrotation Yrotation
              End Site
              {
                OFFSET 0.07200000 0.00000000 0.00000000
              }
            }
          }
        }
      }
    }
  }
  JOINT LeftUpLeg
  {
    OFFSET 0.05984250 -0.07666000 0.04788790
    CHANNELS 3 Zrotation Xrotation Yrotation
    JOINT LeftLeg
    {
      OFFSET 0.16000000 0.00000000 0.00000000
      CHANNELS 3 Zrotation Xrotation Yrotation
      JOINT LeftFoot
      {
        OFFSET 0.18000000 0.00000000 0.00000000
        CHANNELS 3 Zrotation Xrotation Yrotation
        End Site
        {
          OFFSET 0.00000000 -0.10800000 0.00000000
        }
      }
    }
  }
  JOINT RightUpLeg
  {
    OFFSET 0.05984250 -0.07665980 -0.04788790
    CHANNELS 3 Zrotation Xrotation Yrotation
    JOINT RightLeg
    {
      OFFSET 0.16000000 0.00000000 0.00000000
      CHANNELS 3 Zrotation Xrotation Yrotation
      JOINT RightFoot
      {
        OFFSET 0.18000000 0.00000000 0.00000000
        CHANNELS 3 Zrotation Xrotation Yrotation
        End Site
        {
          OFFSET 0.00000000 -0.10800000 0.00000000
        }
      }
    }
  }
  JOINT Tail
  {
    OFFSET 0.06836960 -0.00722574 0.00000000
    CHANNELS 3 Zrotation Xrotation Yrotation
    JOINT Tail1
    {
      OFFSET 0.12000000 0.00000000 0.00000000
      CHANNELS 3 Zrotation Xrotation Yrotation
      End Site
      {
        OFFSET 0.12000000 0.00000000 0.00000000
      }
    }
  }
}
MOTION
Frames:	15
Frame Time:	0.0166667
-0.1250263 0.4292850 0.2629604 -14.9909 21.8856 -86.2706 -157.386 -4.51592 -4.11169 7.07972 2.89532 -47.7398 6.99758 14.9246 -58.0235 83.4309 70.0101 -77.7921 -103.396 -24.5874 -144.887 161.585 -45.8893 -123.333 -39.6289 6.07744 6.59321 -27.6553 1.54412 -8.18662 72.3581 -34.9766 45.9473 19.7869 -36.5991 -63.213 -51.3339 -23.4152 -1.03282 -8.90341 2.93925 -2.79717 -137.445 -13.2622 -17.4746 82.1007 18.1538 11.7736 42.3102 -3.69047 -6.23817 -119.634 6.35659 10.0024 95.7342 3.76914 -5.16486 25.2302 -1.2691 -2.92191 13.9084 19.052 -60.8696 2.45418 5.84214 -7.79482 
-0.1122153 0.4293740 0.2534883 -17.1072 20.5041 -81.6953 -157.378 -4.6065 -4.5221 7.67791 2.53675 -46.8621 6.42846 14.7072 -57.1186 83.6325 70.3732 -77.4244 -103.45 -24.5201 -145.334 165.562 -46.5076 -121.5 -40.163 5.98268 7.18644 -27.7148 1.58002 -8.48961 72.3905 -34.8461 45.7857 26.6799 -38.2239 -59.9613 -54.8084 -24.0889 -0.61876 -10.6585 2.26637 -0.00970158 -138.256 -16.4253 -19.4816 85.3762 20.1655 12.289 38.922 -3.83777 -6.46731 -119.613 8.18928 10.4487 96.3837 4.55491 -5.46708 27.0132 -1.19712 -2.83986 14.9724 19.3643 -62.5421 2.9563 4.97939 -8.2163 
-0.1000407 0.4309530 0.2427054 -18.8581 18.7552 -77.1681 -157.582 -4.81125 -4.93081 8.13683 2.13524 -46.0712 6.26338 14.8311 -56.1201 83.6026 69.7756 -76.8668 -104 -25.0919 -145.717 167.342 -46.652 -120.376 -41.1709 5.38902 7.34493 -26.7824 1.14802 -7.43413 72.3335 -34.8329 45.5928 38.5611 -38.3006 -55.4332 -60.7468 -21.4695 -0.166795 -9.17287 1.50919 1.88867 -138.413 -18.4801 -19.8445 87.061 20.9783 12.2815 36.8788 -3.95453 -6.67452 -119.361 10.1629 10.885 95.9466 5.18829 -5.95432 29.4504 -1.08736 -2.73708 15.3904 19.6652 -63.7016 3.42773 4.4077 -8.84799 
-0.0890101 0.4334150 0.2303165 -20.0273 16.5178 -72.8279 -158.298 -5.09655 -5.59676 8.37344 1.77894 -45.0555 6.73403 15.1874 -55.3189 83.0524 68.5618 -76.4048 -104.533 -25.8343 -145.479 168.161 -46.5915 -119.653 -42.568 4.86674 7.41962 -24.7775 0.0816659 -4.71171 72.1932 -34.9573 45.431 44.0011 -38.3131 -53.7103 -62.9705 -18.7422 0.917278 -8.00548 0.379765 5.07222 -138.244 -19.528 -19.6668 86.9171 20.3915 12.4925 37.1988 -4.03732 -6.78736 -119.095 12.1056 10.9476 94.7511 5.78384 -6.5998 32.1501 -0.998158 -2.70671 14.883 19.9698 -64.1229 4.05214 4.08798 -9.65287 
-0.0791942 0.4365370 0.2165183 -20.9768 13.8904 -68.4881 -159.388 -5.38855 -6.39155 8.70471 1.34682 -43.6791 7.78629 15.3038 -54.9031 80.8839 67.4917 -75.7225 -104.832 -26.3526 -145.047 165.438 -45.466 -120.352 -46.2516 -0.30146 7.05982 -16.2734 -1.08426 1.94827 72.1993 -35.0138 45.5601 45.7207 -37.8334 -52.4902 -61.7786 -23.3986 1.47257 -12.2897 0.530374 5.25015 -137.198 -19.8078 -18.6819 84.2788 19.3462 13.4857 39.454 -4.23422 -7.01898 -118.733 13.8113 11.1162 92.8066 5.89316 -7.45118 35.2406 -0.861022 -2.6561 13.9274 20.4915 -63.9805 4.64114 3.84041 -10.5119 
-0.0704610 0.4395650 0.2015963 -21.7372 10.9643 -64.0270 -160.591 -5.57005 -6.97095 9.04958 0.96004 -42.4049 8.5435 15.0007 -54.1049 79.6144 67.0053 -75.023 -105.113 -26.6296 -145.272 150.307 -40.4995 -126.304 -53.1531 -8.57009 6.58265 -1.33584 -0.517902 12.4782 72.638 -34.6312 46.0872 48.6867 -37.0014 -51.0379 -61.3866 -23.9726 2.12242 -13.7067 0.24767 5.91443 -135.326 -19.5471 -17.2781 79.3856 19.1866 15.182 42.8493 -4.61395 -7.42467 -118.423 15.1731 11.1296 90.4583 5.94416 -8.40552 38.6241 -0.726054 -2.63413 12.9094 21.1056 -63.6192 4.81121 3.5751 -11.2165 
-0.0627167 0.4420230 0.1861042 -22.3154 8.08394 -59.5062 -161.556 -5.83422 -7.27472 9.05394 0.57868 -41.3367 9.05612 14.6601 -53.1887 79.3825 66.9412 -74.737 -105.179 -26.653 -145.446 132.883 -32.7895 -130.148 -60.7685 -20.7098 6.57473 16.4487 3.73385 15.8243 73.1873 -34.0699 46.6085 52.4374 -36.4819 -49.4439 -62.138 -22.4721 2.28524 -14.2344 -0.329173 7.36487 -132.65 -19.2572 -16.1745 73.1975 19.6729 17.2859 46.9883 -5.09229 -7.84406 -118.142 16.2866 10.7916 88.227 6.66089 -9.30744 42.1435 -0.662193 -2.71834 12.2134 21.6073 -62.9863 4.66734 3.21023 -11.6171 
-0.0559806 0.4441930 0.1708379 -22.6273 5.37669 -54.7851 -162.245 -6.23422 -6.99687 8.6322 0.123761 -40.6484 9.50499 14.5479 -52.748 79.9757 67.5663 -75.47 -105.309 -27.035 -144.808 121.063 -26.525 -129.324 -65.3423 -34.3447 7.33547 30.1492 6.23614 7.04364 73.5428 -33.4764 46.4926 55.0541 -35.5797 -47.6926 -62.3156 -22.0391 2.07146 -15.2577 -0.588647 7.96137 -129.416 -18.7679 -14.7801 66.7682 20.0956 19.1319 52.1167 -5.64524 -8.2263 -117.759 17.4992 10.2951 85.7268 7.40538 -10.2604 46.1274 -0.491827 -2.67609 12.0081 21.7046 -62.2212 4.40131 2.66497 -11.651 
-0.0505923 0.4456600 0.1560452 -22.5738 2.92856 -49.7716 -163.042 -6.56614 -5.757 8.30665 -0.39455 -41.0766 9.61324 14.6308 -52.052 81.5052 68.2762 -76.5744 -106.092 -28.2916 -144.066 115.167 -24.3899 -128.672 -67.472 -44.5782 10.3907 35.1937 4.9349 -5.07408 74.1249 -32.6874 46.685 56.5413 -34.9991 -46.622 -62.3634 -21.9206 2.27307 -15.796 -0.694297 8.04345 -126.299 -18.0059 -13.5797 61.5364 21.926 20.6665 54.3641 -6.26837 -8.81162 -117.402 18.767 9.63965 83.3621 7.81435 -11.2438 49.8274 -0.199432 -2.48711 12.1732 21.282 -61.3953 4.07615 2.03133 -11.4961 
-0.0464522 0.4461580 0.1416340 -22.3413 0.96136 -44.5733 -164.21 -6.62788 -4.13602 8.8236 -1.00525 -41.7269 9.79184 14.622 -51.8016 82.5357 69.0926 -77.657 -107.032 -29.9571 -142.871 111.258 -24.0247 -129.568 -68.1635 -50.7297 15.1847 35.4888 3.43544 -12.7254 74.5031 -32.2076 46.8893 57.1774 -34.4576 -46.0354 -61.9085 -22.056 2.72214 -15.8681 -0.663074 7.71109 -124.006 -17.807 -13.0055 59.8025 21.6603 21.1915 51.9862 -6.44258 -9.18923 -116.941 19.9955 8.63731 81.2218 7.68884 -11.9866 53.2779 0.261679 -2.13253 12.8306 20.2805 -60.2671 3.89037 1.31353 -11.1665 
-0.0440041 0.4452160 0.1275971 -22.0919 -0.48284 -39.4844 -165.446 -6.29424 -2.82714 10.061 -1.45525 -41.7589 10.6092 14.2264 -52.5253 83.2115 70.0094 -78.8325 -107.439 -31.021 -141.559 108.665 -24.1149 -131.554 -68.7646 -51.3309 19.9099 34.1901 3.67356 -10.204 74.5472 -32.2228 47.0662 58.0967 -34.1408 -45.4061 -61.1071 -21.7846 3.20314 -15.7477 -0.76636 7.8723 -122.772 -17.7327 -13.719 59.2072 20.647 22.0969 49.72 -6.58066 -9.55181 -116.77 21.0215 7.60774 80.683 5.72213 -12.1836 55.2624 0.774577 -1.66632 13.8977 18.8103 -58.5151 3.96815 0.563989 -10.5737 
-0.0428543 0.4428590 0.1141657 -22.2051 -1.66596 -34.4703 -166.554 -5.81396 -1.71703 11.6809 -1.8652 -41.3713 11.655 13.7549 -53.3702 83.5042 69.6897 -78.7379 -107.404 -31.2268 -140.962 105.581 -23.5958 -134.902 -69.0236 -52.9659 25.3717 32.4976 4.11547 -7.54306 74.3892 -32.425 46.9823 59.7877 -33.8175 -44.3982 -59.9747 -22.1266 3.92443 -16.0191 -0.873867 8.16062 -122.172 -17.0306 -14.9134 56.9668 22.7281 23.5974 49.6468 -7.05407 -10.0909 -117.282 21.1634 6.96266 82.4728 0.0358546 -11.3889 54.2751 1.26425 -1.01133 15.4422 17.1516 -56.2676 4.18222 -0.0673446 -9.8845 
-0.0417914 0.4389230 0.1009538 -23.1049 -2.70481 -29.3756 -167.173 -5.27873 -0.688839 13.4343 -2.25932 -40.5128 12.5742 13.2904 -54.5116 83.3516 69.1504 -78.2788 -107.116 -30.7917 -141.086 101.89 -21.8562 -138.446 -66.9298 -56.4275 32.2448 29.6731 4.40818 -7.49989 74.3974 -32.6327 47.4438 60.7966 -33.8022 -44.0079 -58.2261 -22.2144 4.79361 -16.0696 -0.967255 8.37076 -122.076 -15.7897 -15.559 56.4706 26.0693 23.5606 49.1969 -7.31986 -10.433 -118.914 19.6429 6.63183 87.8865 -6.01308 -9.74444 50.7045 1.4707 -0.428432 17.8093 15.3722 -53.8841 4.47523 -0.531612 -9.22279 
-0.0406785 0.4332290 0.0872968 -24.9291 -3.70821 -24.4644 -166.642 -4.86673 0.147357 14.8556 -2.60931 -39.5363 12.913 12.8287 -55.4985 83.2001 69.0622 -77.8334 -106.59 -29.8554 -141.676 97.3043 -18.9496 -141.797 -63.2159 -59.966 40.7917 24.9037 4.6279 -8.40427 74.6219 -32.6504 48.2106 61.2251 -34.177 -43.9041 -56.0072 -22.0489 5.74122 -15.8298 -1.02004 8.4566 -121.919 -15.0168 -15.9295 59.1225 28.2874 22.3842 47.4425 -7.20829 -10.4831 -121.505 16.7519 6.77168 96.2624 -9.41202 -7.65933 44.9813 1.13033 -0.239153 21.2492 13.687 -51.2175 4.89242 -0.747399 -8.58123 
-0.0393960 0.4268570 0.0731747 -27.4616 -4.79448 -19.8423 -165.192 -4.60099 0.911471 15.8717 -2.93182 -38.9155 12.5953 12.5007 -56.0245 82.5165 69.0285 -76.9176 -106.089 -28.8616 -142.538 93.0382 -15.312 -145.23 -57.8554 -63.0631 50.5366 18.9953 4.75575 -11.0551 74.8 -32.532 48.5452 61.4564 -35.0197 -43.2293 -53.5834 -21.875 6.87654 -15.216 -1.08833 8.65959 -121.18 -15.0918 -15.9405 62.7531 28.3011 20.8272 45.4473 -6.80925 -10.1996 -123.754 13.4148 7.00958 106.142 -10.526 -5.72647 34.8971 0.348611 -0.293828 25.3222 12.1147 -47.992 5.47535 -0.659234 -8.03606 
